<?xml version="1.0" encoding="utf-8"?>
<!-- Generator: Adobe Illustrator 23.0.3, SVG Export Plug-In . SVG Version: 6.00 Build 0)  -->
<svg version="1.1" id="Layer_1" xmlns="http://www.w3.org/2000/svg" xmlns:xlink="http://www.w3.org/1999/xlink" x="0px" y="0px"
	 viewBox="0 0 82.53 66.01" style="enable-background:new 0 0 82.53 66.01;" xml:space="preserve">
<g>
	<g>
		<path d="M80.34,5.02C74.72-0.8,63.9,1.74,61.42,9.41c0.88-0.71,1.75-1.55,2.74-2.18c3.29-2.1,7.51-1.9,10.08,0.43
			c1.55,1.41,2.31,3.15,1.79,5.26c-0.52,2.11-1.96,3.39-4.02,3.8c-1.2,0.24-2.5,0.26-3.71,0.08c-3.15-0.45-5.8-2.09-8.43-3.76
			c-3.89-2.47-7.75-4.99-11.77-7.22c-5.37-2.97-11.02-5.3-17.25-5.76c-3.54-0.26-6.92,0.27-9.79,2.56c-0.8,0.64-1.43,1.49-2.14,2.25
			c7.13-1.49,13.79-0.54,20.19,2.2c3.12,1.33,6.12,2.98,9.06,4.68c5.14,2.98,10.15,6.18,15.77,8.18c0.93,0.33,1.89,0.55,2.86,0.69
			l1.87,0.27c2.86,0.41,5.79,0.06,8.41-1.14c0.13-0.06,0.26-0.12,0.38-0.18C82.71,16.92,84.24,9.07,80.34,5.02z"/>
		<path d="M60.51,54.93c-7.29,1.07-14.04-0.74-20.44-4.01c-1.63-0.84-3.22-1.76-4.8-2.7c-0.9,1.37-1.77,2.88-2.61,4.53
			c4.76,2.68,9.71,4.94,15.12,6.12c3.93,0.86,7.85,1.05,11.63-0.69c1.74-0.8,3.17-1.98,4.28-3.86c-0.74,0.14-1.23,0.24-1.71,0.33
			C61.49,54.75,61,54.86,60.51,54.93z"/>
		<path d="M29.64,44.95c-0.35-0.19-0.7-0.38-1.06-0.57c-3.72-1.92-7.53-3.76-11.46-5.17c-4.02-1.44-8.21-1.36-12.1,0.75
			c-3.41,1.84-4.88,4.98-5.01,8.69c-0.11,3.12,1.24,5.67,4.02,7.23c3,1.68,6.23,2.21,9.58,1.31c3.82-1.02,6.12-3.7,7.8-7.49
			c-0.83,0.77-1.36,1.37-2,1.85c-2.84,2.12-5.91,2.91-9.3,1.44c-2.78-1.21-4.21-3.78-3.64-6.37c0.53-2.41,2.86-4.07,5.78-4.11
			c3.46-0.04,6.41,1.41,9.24,3.18c1.92,1.21,3.78,2.51,5.69,3.74c0.46-0.98,0.99-1.99,1.6-3.04C29.04,45.94,29.33,45.46,29.64,44.95
			z"/>
		<path d="M58.26,26.7c-4.47,0.85-7.34,3.53-7.64,7.44c1.11-0.54,2.13-1.21,3.25-1.55c7.7-2.33,14.81,3.85,13.51,11.88
			c-0.49,3-1.58,5.91-2.34,8.67c3.55-3.41,6.26-7.55,6.83-12.85C72.55,33.92,67.67,24.91,58.26,26.7z"/>
		<path d="M27.04,32.26c2.57-1.31,4.08-3.37,4.34-6.42c-0.28,0.12-0.43,0.16-0.54,0.25c-3.46,2.5-7.14,2.38-10.81,0.68
			c-3.59-1.67-5.42-4.69-5.55-8.61c-0.06-1.77,0.18-3.61,0.6-5.34c0.49-2.01,1.32-3.94,2-5.9c-0.06-0.06-0.12-0.12-0.18-0.18
			c-0.48,0.56-0.96,1.13-1.45,1.69c-3.55,4.06-5.91,8.59-5.32,14.18C11.05,31.36,19.45,36.14,27.04,32.26z"/>
	</g>
	<path d="M25.54,60.38c-0.07-1.64,0.11-3.29,0.46-4.89c0.2-0.92,0.46-1.82,0.77-2.71c0.72-2.06,1.7-4.03,2.79-5.93
		c0.55-0.95,1.12-1.89,1.71-2.82c0.57-0.89,1.3-1.78,1.75-2.73c0.39-0.85,0.94-1.65,1.43-2.46c1.7-2.81,3.35-5.67,4.68-8.65
		c2.74-6.12,3.69-12.48,2.2-19.29c0.76,0.68,1.61,1.28,2.25,2.05c2.29,2.74,2.82,5.97,2.56,9.35c-0.32,4.18-1.61,8.22-3.41,12.02
		c-1.88,3.98-4.15,7.87-6.82,11.41c-2.35,3.11-4.28,6.53-5.83,10.1c-0.77,1.77-1.44,3.58-2.02,5.42c-0.2,0.64-0.46,1.27-0.67,1.91
		c-0.17,0.51-0.34,1.02-0.47,1.54c-0.12,0.44-0.19,0.87-0.21,1.32c0.01-0.26-0.11-0.52-0.19-0.76c-0.09-0.27-0.18-0.54-0.27-0.82
		c-0.18-0.56-0.33-1.14-0.44-1.72c-0.06-0.3-0.11-0.6-0.15-0.9C25.59,61.34,25.55,60.86,25.54,60.38z"/>
</g>
</svg>
